<svg width="102" height="24" viewBox="0 0 102 24" fill="none" xmlns="http://www.w3.org/2000/svg">
<path fill-rule="evenodd" clip-rule="evenodd" d="M33.6642 18.8802C35.7753 18.8802 37.5742 18.1125 38.7674 16.6894L37.2255 15.1914C36.2893 16.24 35.1328 16.7456 33.7927 16.7456C31.131 16.7456 29.2036 14.8356 29.2036 12.1392C29.2036 9.44281 31.131 7.53285 33.7927 7.53285C35.1328 7.53285 36.2893 8.03843 37.2255 9.06831L38.7674 7.58903C37.5742 6.16592 35.7753 5.39819 33.6826 5.39819C29.7359 5.39819 26.7988 8.22568 26.7988 12.1392C26.7988 16.0528 29.7359 18.8802 33.6642 18.8802ZM49.0748 18.8802C53.0582 18.8802 55.9953 16.034 55.9953 12.1392C55.9953 8.2444 53.0582 5.39819 49.0748 5.39819C45.0914 5.39819 42.1543 8.26313 42.1543 12.1392C42.1543 16.0153 45.0914 18.8802 49.0748 18.8802ZM49.0748 16.7456C46.4865 16.7456 44.5591 14.8169 44.5591 12.1392C44.5591 9.46153 46.4865 7.53285 49.0748 7.53285C51.6631 7.53285 53.5906 9.46153 53.5906 12.1392C53.5906 14.8169 51.6631 16.7456 49.0748 16.7456ZM68.9426 18.693H59.8376V5.58544H62.224V16.6332H68.9426V18.693ZM84.0259 18.693H86.5224L80.7217 5.58544H78.3721L72.5897 18.693H75.0495L76.3161 15.6595H82.741L84.0259 18.693ZM77.1238 13.7496L79.5285 8.0197L81.9516 13.7496H77.1238ZM100.887 8.99341C100.887 10.3416 100.226 11.334 99.235 11.8771C100.612 12.3265 101.548 13.4312 101.548 15.1352C101.548 17.3822 99.8224 18.693 96.5182 18.693H90.13V9.71892H92.5164V11.1093H95.8941C97.5462 11.1093 98.4823 10.5101 98.4823 9.31173C98.4823 8.0946 97.5462 7.4954 95.8941 7.4954H92.5164H90.13V5.58544H96.151C99.235 5.58544 100.887 6.91492 100.887 8.99341ZM92.5164 16.783H96.3713C98.1703 16.783 99.1432 16.2026 99.1432 14.8918C99.1432 13.581 98.1703 13.0006 96.3713 13.0006H92.5164V16.783Z" fill="#1D2838"/>
<path d="M20.8446 11.0301C20.8446 11.8047 20.7733 11.8047 20.2019 12.1856L11.3396 17.3022C10.9132 17.5461 10.7221 17.6587 10.7221 17.9224L10.722 13.2447C10.722 12.5921 10.9245 12.2116 11.3294 11.9778L20.2372 6.83489C20.6373 6.60389 20.8473 6.30846 20.8447 6.11774L20.8446 11.0301Z" fill="#006CE0"/>
<path d="M20.8447 17.2351C20.8447 17.7624 20.6372 18.1459 20.2374 18.3767C20.2374 18.3767 11.7611 23.2728 11.3346 23.5167C10.9249 23.7533 10.7222 23.6066 10.7222 23.0991C10.7222 22.3918 10.7225 19.2641 10.7225 19.2641C10.7225 18.8488 10.9145 18.3622 11.3245 18.1255L20.2376 12.9795C20.6425 12.7457 20.8447 12.6335 20.8447 12.281L20.8447 17.2351Z" fill="#006CE0"/>
<path d="M4.35611 3.49821C5.0269 3.11093 5.06254 3.17267 5.67821 3.47712L14.5404 8.59373C14.9649 8.84112 15.1579 8.95024 15.3863 8.81841L11.3353 11.1573C10.7702 11.4836 10.3393 11.4986 9.93444 11.2648L1.02666 6.12187C0.62656 5.89088 0.265704 5.85672 0.101838 5.95434L4.35611 3.49821Z" fill="#006CE0"/>
<path d="M9.73011 0.396022C10.1868 0.132357 10.6226 0.12033 11.0225 0.351177C11.0225 0.351177 19.5008 5.24379 19.9252 5.49118C20.3349 5.72772 20.3093 5.97657 19.8697 6.23035C19.2572 6.58396 16.5484 8.14762 16.5484 8.14762C16.1888 8.35526 15.6713 8.43224 15.2614 8.19555L6.34823 3.04956C5.94333 2.81579 5.74502 2.6968 5.43974 2.87306L9.73011 0.396022Z" fill="#006CE0"/>
<path d="M6.06 21.5437C5.38921 21.1564 5.42486 21.0947 5.38068 20.4093L5.38068 10.1761C5.38271 9.68479 5.38068 9.46304 5.15234 9.3312L9.2034 11.67C9.76854 11.9963 9.99688 12.3619 9.99688 12.8294L9.99688 23.1153C9.99688 23.5773 10.1477 23.9068 10.3142 23.9999L6.06 21.5437Z" fill="#006CE0"/>
<path d="M0.685921 18.4414C0.229239 18.1777 0.000897501 17.8063 0.000897427 17.3446C0.000897427 17.3446 -0.00112503 7.55588 0.000897954 7.06461C0.000897879 6.59152 0.229237 6.48931 0.668795 6.74309C1.28126 7.0967 3.98986 8.66081 3.98986 8.66081C4.3495 8.86844 4.67489 9.27806 4.67489 9.75144L4.67489 20.0434C4.67489 20.511 4.671 20.7422 4.97628 20.9185L0.685921 18.4414Z" fill="#006CE0"/>
</svg>
